<?xml version="1.0" encoding="utf-8"?>
<!-- Generator: Adobe Illustrator 16.0.0, SVG Export Plug-In . SVG Version: 6.00 Build 0)  -->
<!DOCTYPE svg PUBLIC "-//W3C//DTD SVG 1.1//EN" "http://www.w3.org/Graphics/SVG/1.1/DTD/svg11.dtd">
<svg version="1.1" id="Ebene_1" xmlns="http://www.w3.org/2000/svg" xmlns:xlink="http://www.w3.org/1999/xlink" x="0px" y="0px"
	 width="100px" height="100px" viewBox="0 0 100 100" enable-background="new 0 0 100 100" xml:space="preserve">
<path d="M0,0v100h100V0H0z M31.622,70.633c-7.848,0-15.5-2.943-15.892-11.902h8.831v-0.002c0.065,4.056,3.466,5.69,7.128,5.69
	c2.681,0,6.082-1.047,6.082-4.315c0-2.813-3.858-3.795-10.529-5.232c-5.363-1.178-10.726-3.073-10.726-9.025
	c0-8.633,7.456-10.856,14.715-10.856c7.39,0,14.192,2.485,14.911,10.791h-8.829c-0.262-3.597-3.009-4.578-6.344-4.578
	c-2.093,0-5.167,0.393-5.167,3.139c0,3.335,5.232,3.793,10.529,5.036c5.428,1.243,10.725,3.205,10.725,9.483
	C47.056,67.756,39.339,70.633,31.622,70.633z M75.507,69.716l-9.286-15.106l-3.598,3.467v11.641h-9.286V23.021h9.286v25.048
	L74.33,35.904h10.986L72.564,48.33l14.19,21.386H75.507z"/>
</svg>
